<svg width="44" height="44" viewBox="0 0 44 44" fill="none" xmlns="http://www.w3.org/2000/svg">
<g clip-path="url(#clip0_1_225)">
<path d="M10.2732 22.9628H8.42445C7.24504 22.9628 6.28546 22.0093 6.28546 20.8374C6.28546 20.4814 5.99697 20.1929 5.64093 20.1929C5.28489 20.1929 4.9964 20.4814 4.9964 20.8374C4.9964 22.7201 6.53425 24.2519 8.42453 24.2519H10.2732C10.6293 24.2519 10.9178 23.9634 10.9178 23.6074C10.9178 23.2513 10.6293 22.9628 10.2732 22.9628Z" fill="#E4E541"/>
<path d="M16.3297 27.7327H10.8235C9.00486 27.7327 7.52527 29.2062 7.52527 31.0177C7.52527 31.3738 7.81376 31.6622 8.1698 31.6622C8.52584 31.6622 8.81433 31.3737 8.81433 31.0177C8.81433 29.9171 9.71556 29.0217 10.8235 29.0217H16.3297C16.6857 29.0217 16.9742 28.7332 16.9742 28.3772C16.9742 28.0212 16.6857 27.7327 16.3297 27.7327Z" fill="#E4E541"/>
<path d="M21.5812 27.7327H18.9077C18.5517 27.7327 18.2632 28.0212 18.2632 28.3772C18.2632 28.7332 18.5517 29.0217 18.9077 29.0217H21.5812C21.9372 29.0217 22.2257 28.7332 22.2257 28.3772C22.2257 28.0212 21.9371 27.7327 21.5812 27.7327Z" fill="#E4E541"/>
<path d="M17.0493 15.209C16.6933 15.209 16.4048 15.4976 16.4048 15.8535C16.4048 17.6965 14.8966 19.1959 13.0427 19.1959C12.6867 19.1959 12.3982 19.4844 12.3982 19.8404C12.3982 20.1965 12.6867 20.4849 13.0427 20.4849C15.6074 20.4849 17.6938 18.4073 17.6938 15.8535C17.6938 15.4976 17.4053 15.209 17.0493 15.209Z" fill="#E4E541"/>
<path d="M15.8612 5.46556C14.3215 5.36673 12.9866 6.53402 12.8867 8.06852C12.8636 8.42379 13.1328 8.73041 13.488 8.75362C13.5023 8.75456 13.5164 8.75499 13.5305 8.75499C13.8674 8.75499 14.1508 8.49322 14.1731 8.15231C14.2267 7.32662 14.9469 6.69954 15.7783 6.75196C16.1338 6.77576 16.44 6.50549 16.4629 6.15022C16.4858 5.79496 16.2164 5.4885 15.8612 5.46556Z" fill="#E4E541"/>
<path d="M13.6936 30.6028C13.3376 30.6028 13.0491 30.8913 13.0491 31.2473C13.0491 31.6034 13.3376 31.8918 13.6936 31.8918C14.758 31.8918 15.6239 32.752 15.6239 33.8092C15.6239 34.8667 14.758 35.7268 13.6936 35.7268C13.3376 35.7268 13.0491 36.0153 13.0491 36.3713C13.0491 36.7274 13.3376 37.0159 13.6936 37.0159C15.4688 37.0159 16.9129 35.5774 16.9129 33.8092C16.9129 32.0412 15.4688 30.6028 13.6936 30.6028Z" fill="#E4E541"/>
<path d="M20.2898 15.425C19.9337 15.425 19.6452 15.7135 19.6452 16.0696C19.6452 16.4256 19.9337 16.7141 20.2898 16.7141C21.1448 16.7141 21.8404 17.4048 21.8404 18.2539C21.8404 19.103 21.1448 19.7938 20.2898 19.7938C19.9337 19.7938 19.6452 20.0823 19.6452 20.4383C19.6452 20.7943 19.9337 21.0828 20.2898 21.0828C21.8556 21.0828 23.1295 19.8137 23.1295 18.2539C23.1295 16.6941 21.8556 15.425 20.2898 15.425Z" fill="#E4E541"/>
<path d="M8.93591 11.3271C8.57987 11.3271 8.29138 11.6156 8.29138 11.9717C8.29138 12.3277 8.57987 12.6162 8.93591 12.6162C10.4049 12.6162 11.6 13.8039 11.6 15.2638C11.6 16.7238 10.4049 17.9115 8.93591 17.9115C8.57987 17.9115 8.29138 18.2 8.29138 18.556C8.29138 18.9121 8.57987 19.2006 8.93591 19.2006C11.1156 19.2006 12.889 17.4346 12.889 15.2638C12.889 13.0931 11.1156 11.3271 8.93591 11.3271Z" fill="#E4E541"/>
<path d="M39.2357 11.2981C38.0243 11.2981 37.0386 12.2803 37.0386 13.4875C37.0386 14.6949 38.0243 15.677 39.2357 15.677C40.4472 15.677 41.4328 14.6949 41.4328 13.4875C41.4328 12.2803 40.4472 11.2981 39.2357 11.2981ZM39.2358 14.3881C38.7351 14.3881 38.3278 13.9842 38.3278 13.4876C38.3277 12.9912 38.735 12.5872 39.2358 12.5872C39.7365 12.5872 40.1438 12.9912 40.1438 13.4876C40.1438 13.9841 39.7365 14.3881 39.2358 14.3881Z" fill="#E4E541"/>
<path d="M41.3895 27.7937C40.1779 27.7937 39.1924 28.7759 39.1924 29.9832C39.1924 31.1906 40.178 32.1726 41.3895 32.1726C42.6009 32.1726 43.5865 31.1905 43.5865 29.9832C43.5865 28.776 42.6009 27.7937 41.3895 27.7937ZM41.3895 30.8836C40.8888 30.8836 40.4814 30.4797 40.4814 29.9832C40.4814 29.4868 40.8888 29.0828 41.3895 29.0828C41.8901 29.0828 42.2974 29.4867 42.2974 29.9832C42.2975 30.4797 41.8901 30.8836 41.3895 30.8836Z" fill="#E4E541"/>
<path d="M40.037 20.069C39.6652 20.0691 39.315 20.1619 39.0077 20.3251L37.7512 19.0748C37.4988 18.8237 37.0908 18.8249 36.8398 19.0771C36.5887 19.3294 36.5897 19.7374 36.842 19.9885L38.0953 21.2356C37.9326 21.5412 37.8399 21.8891 37.8399 22.2584C37.8399 23.4657 38.8256 24.4479 40.037 24.4479C41.2486 24.4479 42.2341 23.4657 42.2341 22.2584C42.2341 21.0511 41.2485 20.069 40.037 20.069ZM40.0371 23.1589C39.5364 23.1589 39.1291 22.755 39.1291 22.2585C39.1291 21.7621 39.5364 21.3581 40.0371 21.3581C40.5378 21.3581 40.9451 21.762 40.9451 22.2585C40.9451 22.7549 40.5378 23.1589 40.0371 23.1589Z" fill="#E4E541"/>
<path d="M38.5848 34.5215C37.3733 34.5215 36.3878 35.5037 36.3878 36.711C36.3878 37.9183 37.3734 38.9005 38.5848 38.9005C39.7964 38.9005 40.7819 37.9183 40.7819 36.711C40.7819 35.5037 39.7964 34.5215 38.5848 34.5215ZM38.5848 37.6114C38.0842 37.6114 37.6768 37.2075 37.6768 36.7109C37.6768 36.2145 38.0842 35.8105 38.5848 35.8105C39.0855 35.8105 39.4928 36.2144 39.4928 36.7109C39.4929 37.2075 39.0856 37.6114 38.5848 37.6114Z" fill="#E4E541"/>
<path d="M31.0433 12.1125C31.453 12.1125 31.9418 11.9107 32.2322 11.6218L34.7221 9.14401C34.9724 9.24292 35.2446 9.29792 35.5297 9.29792C36.7412 9.29792 37.7268 8.31574 37.7268 7.10841C37.7268 5.90116 36.7411 4.91906 35.5297 4.91906C34.3182 4.91906 33.3327 5.90124 33.3327 7.10841C33.3327 7.56173 33.4716 7.98342 33.7095 8.33319L31.3231 10.7078C31.2727 10.7562 31.113 10.8222 31.0433 10.8234H25.7233V6.55686H27.2197C27.4965 7.45052 28.333 8.10184 29.3195 8.10184C30.531 8.10184 31.5166 7.11966 31.5166 5.91233C31.5166 4.70508 30.5309 3.7229 29.3195 3.7229C28.333 3.7229 27.4965 4.37413 27.2197 5.2678H25.7233V5.17017C25.7233 2.31928 23.3939 0 20.5307 0C18.4838 0 16.6477 1.19298 15.8098 3.01709C15.6809 3.00798 15.5525 3.00334 15.425 3.00334C12.4492 3.00334 10.0202 5.37917 9.95115 8.32597C9.6942 8.28936 9.43432 8.27088 9.17333 8.27088C6.15417 8.27088 3.69799 10.7165 3.69799 13.7225C3.69799 14.3823 3.81375 15.0208 4.04269 15.6281C1.78906 16.9653 0.413635 19.354 0.413635 22C0.413635 23.4207 0.818315 24.8017 1.58385 25.9936C2.21446 26.9754 3.06403 27.7925 4.06332 28.384C3.82321 29.0062 3.69799 29.6726 3.69799 30.3417C3.69799 31.6687 4.18251 32.9476 5.06225 33.9426C5.29798 34.2093 5.70532 34.2344 5.97207 33.9986C6.23882 33.7628 6.26383 33.3555 6.02802 33.0888C5.35667 32.3295 4.98706 31.3539 4.98706 30.3416C4.98706 29.6606 5.14802 29.0111 5.46496 28.4109C5.84325 27.6924 6.43098 27.0857 7.17442 26.6832C7.48749 26.5136 7.60377 26.1225 7.43421 25.8095C7.26474 25.4964 6.87347 25.3799 6.56057 25.5497C5.79066 25.9668 5.14879 26.5516 4.66883 27.2439C2.82581 26.1352 1.7027 24.1749 1.7027 22C1.7027 19.6745 2.99073 17.5899 5.07024 16.5347C5.07024 16.5347 6.27354 15.8653 7.87095 15.8653C8.22699 15.8653 8.51548 15.5768 8.51548 15.2207C8.51548 14.8647 8.22699 14.5762 7.87095 14.5762C6.93457 14.5762 6.03824 14.7494 5.21187 15.0645C5.06371 14.6348 4.98723 14.1858 4.98723 13.7226C4.98723 11.4273 6.86514 9.56003 9.1735 9.56003C9.6074 9.56003 10.0367 9.62646 10.4493 9.75752C10.6608 9.82463 10.8919 9.77831 11.0611 9.6348C11.2304 9.49128 11.3139 9.27094 11.2822 9.05128C11.2534 8.85122 11.2388 8.65064 11.2388 8.45505C11.2388 6.15983 13.1168 4.29249 15.4252 4.29249C15.6519 4.29249 15.8836 4.31191 16.1142 4.34981C18.0957 4.67758 19.6115 6.39315 19.6115 8.45505C19.6115 8.81109 19.9 9.09958 20.256 9.09958C20.612 9.09958 20.9005 8.81109 20.9005 8.45505C20.9005 6.04003 19.3146 3.9881 17.1254 3.2743C17.8059 2.06413 19.0993 1.28906 20.5307 1.28906C22.683 1.28906 24.4342 3.03016 24.4342 5.17017V5.24176H23.1945C22.8385 5.24176 22.55 5.53025 22.55 5.88629C22.55 6.24233 22.8385 6.53082 23.1945 6.53082H24.4342V10.8233H19.2212C18.0417 10.8233 17.0822 9.86992 17.0822 8.69808C17.0822 8.34204 16.7937 8.05355 16.4376 8.05355C16.0816 8.05355 15.7931 8.34204 15.7931 8.69808C15.7931 10.5807 17.3309 12.1124 19.2212 12.1124H24.4342V22.9625H13.9792C13.6232 22.9625 13.3347 23.251 13.3347 23.607C13.3347 23.9631 13.6232 24.2516 13.9792 24.2516H24.4342V33.1011H22.4425C20.6239 33.1011 19.1444 34.5746 19.1444 36.386C19.1444 36.7421 19.4329 37.0306 19.7889 37.0306C20.145 37.0306 20.4335 36.7421 20.4335 36.386C20.4335 35.2855 21.3347 34.3901 22.4425 34.3901H24.4342V38.8298C24.4342 38.9311 24.429 39.0311 24.4214 39.1304H23.1945C22.8385 39.1304 22.55 39.4188 22.55 39.7749C22.55 40.1309 22.8385 40.4194 23.1945 40.4194H24.0904C23.4784 41.7688 22.1135 42.7109 20.5307 42.7109C19.1089 42.7109 17.8203 41.9439 17.1363 40.7453C17.9148 40.491 18.6313 40.0635 19.2349 39.4812C19.4911 39.2341 19.4984 38.826 19.2512 38.57C19.0041 38.3136 18.596 38.3064 18.3399 38.5535C17.7245 39.1474 16.9551 39.5307 16.1242 39.6693C15.8899 39.7085 15.6547 39.7284 15.425 39.7284C13.1167 39.7284 11.2387 37.8611 11.2387 35.5658C11.2387 35.5071 11.2422 35.4461 11.245 35.3858C11.7653 35.174 12.254 34.8843 12.6899 34.5204C12.9632 34.2923 12.9997 33.8858 12.7715 33.6126C12.5434 33.3393 12.1436 33.311 11.8637 33.5309C10.5703 34.5469 9.31942 34.5311 8.81901 34.4896C8.46323 34.4594 8.15282 34.7238 8.12326 35.0785C8.09378 35.4332 8.35753 35.7447 8.71228 35.7742C9.12435 35.8083 9.54415 35.7963 9.95235 35.7381C10.044 38.6648 12.4638 41.0175 15.4251 41.0175C15.5556 41.0175 15.6871 41.0126 15.8191 41.0029C16.6615 42.815 18.4939 44 20.5307 44C23.3938 44 25.7233 41.6807 25.7233 38.8298V37.4055H29.14C29.2099 37.4067 29.3696 37.4726 29.4199 37.5209L30.9565 39.05C30.7486 39.3844 30.6282 39.7782 30.6282 40.1997C30.6282 41.407 31.6138 42.3892 32.8253 42.3892C34.0369 42.3892 35.0224 41.407 35.0224 40.1997C35.0224 38.9923 34.0368 38.0102 32.8253 38.0102C32.5067 38.0102 32.2042 38.0786 31.9305 38.2007L30.3291 36.6071C30.0387 36.3182 29.5499 36.1164 29.1402 36.1164H25.7233V32.671H31.3264C31.6032 33.5647 32.4397 34.216 33.4263 34.216C34.6378 34.216 35.6233 33.2338 35.6233 32.0265C35.6233 30.8192 34.6377 29.837 33.4263 29.837C32.4398 29.837 31.6032 30.4882 31.3264 31.382H25.7233V27.0645H32.4283C32.7051 27.9581 33.5416 28.6095 34.5282 28.6095C35.7397 28.6095 36.7252 27.6273 36.7252 26.4199C36.7252 25.2126 35.7396 24.2304 34.5282 24.2304C33.5416 24.2304 32.7051 24.8817 32.4283 25.7754H25.7233V21.0842H27.3198C27.5967 21.9777 28.4332 22.6291 29.4197 22.6291C30.6312 22.6291 31.6168 21.6469 31.6168 20.4396C31.6168 19.2323 30.6312 18.2501 29.4197 18.2501C28.4332 18.2501 27.5966 18.9014 27.3198 19.7951H25.7233V16.0756H32.7459C32.8158 16.0769 32.9755 16.1428 33.0258 16.1911L34.3498 17.5086C34.4755 17.6338 34.6399 17.6963 34.8044 17.6963C34.9698 17.6963 35.1353 17.633 35.2612 17.5064C35.5123 17.2541 35.5113 16.846 35.259 16.5949L33.935 15.2773C33.6446 14.9884 33.1558 14.7866 32.7462 14.7866H25.7233V12.1125H31.0433ZM35.5297 6.20804C36.0303 6.20804 36.4377 6.61195 36.4377 7.10832C36.4377 7.60478 36.0303 8.00877 35.5297 8.00877C35.029 8.00877 34.6217 7.60487 34.6217 7.10832C34.6217 6.61195 35.029 6.20804 35.5297 6.20804ZM29.3195 5.01196C29.8202 5.01196 30.2275 5.41587 30.2275 5.91233C30.2275 6.40879 29.8202 6.81278 29.3195 6.81278C28.8188 6.81278 28.4116 6.40887 28.4116 5.91233C28.4115 5.41587 28.8188 5.01196 29.3195 5.01196ZM32.8253 39.2991C33.326 39.2991 33.7333 39.7031 33.7333 40.1996C33.7333 40.696 33.326 41.1 32.8253 41.1C32.3246 41.1 31.9173 40.6961 31.9173 40.1996C31.9173 39.7031 32.3246 39.2991 32.8253 39.2991ZM33.4263 31.126C33.9269 31.126 34.3343 31.53 34.3343 32.0265C34.3343 32.523 33.9269 32.927 33.4263 32.927C32.9256 32.927 32.5183 32.523 32.5183 32.0265C32.5183 31.53 32.9256 31.126 33.4263 31.126ZM34.5281 25.5195C35.0287 25.5195 35.4361 25.9234 35.4361 26.4199C35.4361 26.9164 35.0287 27.3204 34.5281 27.3204C34.0274 27.3204 33.6201 26.9165 33.6201 26.4199C33.6201 25.9234 34.0274 25.5195 34.5281 25.5195ZM29.4197 19.5392C29.9204 19.5392 30.3277 19.9431 30.3277 20.4396C30.3277 20.936 29.9204 21.34 29.4197 21.34C28.919 21.34 28.5117 20.9361 28.5117 20.4396C28.5117 19.9431 28.919 19.5392 29.4197 19.5392Z" fill="#E4E541"/>
</g>
<defs>
<clipPath id="clip0_1_225">
<rect width="44" height="44" fill="white"/>
</clipPath>
</defs>
</svg>
