<svg width="44" height="44" viewBox="0 0 44 44" fill="none" xmlns="http://www.w3.org/2000/svg">
<g clip-path="url(#clip0_1_305)">
<path d="M39.3053 8.41644H40.6648C41.139 8.41644 41.5236 8.03186 41.5236 7.55763C41.5236 7.08339 41.139 6.69881 40.6648 6.69881H37.4013C36.9271 6.69881 36.5425 7.08339 36.5425 7.55763V10.8211C36.5425 11.2953 36.9271 11.6799 37.4013 11.6799C37.8756 11.6799 38.2601 11.2953 38.2601 10.8211V9.87616C40.8659 13.3647 42.2824 17.5976 42.2824 22C42.2824 33.1838 33.1838 42.2824 22 42.2824C10.8162 42.2824 1.71762 33.1838 1.71762 22C1.71762 10.8162 10.8162 1.71762 22 1.71762C22.8271 1.71762 23.6596 1.76786 24.4744 1.86688C24.9446 1.92374 25.3734 1.58889 25.4306 1.118C25.4879 0.6472 25.1526 0.218997 24.6817 0.1618C23.7984 0.0544486 22.8962 0 22 0C16.1236 0 10.5988 2.28839 6.44366 6.44366C2.28839 10.5988 0 16.1236 0 22C0 27.8764 2.28839 33.4012 6.44366 37.5563C10.5988 41.7116 16.1236 44 22 44C27.8764 44 33.4012 41.7116 37.5563 37.5563C41.7116 33.4012 44 27.8764 44 22C44 17.0411 42.3434 12.2806 39.3053 8.41644Z" fill="#E4E541"/>
<path d="M9.31563 12.9691C8.91482 12.7154 8.38433 12.8348 8.13055 13.2354C6.16997 16.3319 5.30206 20.0559 5.68672 23.7214C6.07705 27.4412 7.7513 30.9491 10.4011 33.599C13.5989 36.7968 17.7994 38.3957 22 38.3957C26.2006 38.3957 30.4011 36.7969 33.5989 33.599C39.9946 27.2033 39.9946 16.7968 33.5989 10.4012C30.9532 7.75554 27.4511 6.08189 23.7374 5.68855C20.0787 5.3008 16.3587 6.16193 13.2635 8.11289C12.8622 8.36581 12.742 8.89613 12.9949 9.29736C13.2478 9.69869 13.7781 9.81883 14.1793 9.566C20.0139 5.88857 27.4999 6.73132 32.3843 11.6157C38.1103 17.3417 38.1103 26.6584 32.3843 32.3844C26.6585 38.1104 17.3416 38.1104 11.6157 32.3844C6.79879 27.5675 5.94342 19.9006 9.58186 14.1543C9.83546 13.7535 9.71635 13.2229 9.31563 12.9691Z" fill="#E4E541"/>
<path d="M33.1646 22.8726H34.2237C34.6979 22.8726 35.0825 22.4881 35.0825 22.0138C35.0825 21.5396 34.6979 21.155 34.2237 21.155H33.1646C32.6904 21.155 32.3058 21.5396 32.3058 22.0138C32.3058 22.4881 32.6903 22.8726 33.1646 22.8726Z" fill="#E4E541"/>
<path d="M8.91754 21.986C8.91754 22.4602 9.30212 22.8448 9.77635 22.8448H10.8354C11.3097 22.8448 11.6942 22.4602 11.6942 21.986C11.6942 21.5118 11.3097 21.1272 10.8354 21.1272H9.77635C9.30212 21.1272 8.91754 21.5117 8.91754 21.986Z" fill="#E4E541"/>
<path d="M22.8727 10.8354V9.77629C22.8727 9.30206 22.4881 8.91748 22.0139 8.91748C21.5397 8.91748 21.1551 9.30206 21.1551 9.77629V10.8354C21.1551 11.3096 21.5397 11.6942 22.0139 11.6942C22.4881 11.6942 22.8727 11.3096 22.8727 10.8354Z" fill="#E4E541"/>
<path d="M21.1272 33.1645V34.2236C21.1272 34.6978 21.5118 35.0824 21.986 35.0824C22.4602 35.0824 22.8448 34.6978 22.8448 34.2236V33.1645C22.8448 32.6902 22.4602 32.3057 21.986 32.3057C21.5118 32.3057 21.1272 32.6902 21.1272 33.1645Z" fill="#E4E541"/>
<path d="M17.6953 16.4808C17.3599 16.1455 16.8162 16.1455 16.4807 16.4808C16.1453 16.8161 16.1453 17.3599 16.4807 17.6954L19.3913 20.606C19.1683 21.0216 19.0414 21.4963 19.0414 22.0001C19.0414 23.6315 20.3686 24.9587 22 24.9587C23.6314 24.9587 24.9586 23.6315 24.9586 22.0001C24.9586 21.4963 24.8317 21.0216 24.6088 20.606L30.4816 14.7332C30.8169 14.3978 30.8169 13.854 30.4816 13.5185C30.1461 13.1833 29.6025 13.1833 29.267 13.5185L23.3941 19.3914C22.9785 19.1683 22.5038 19.0415 22 19.0415C21.4963 19.0415 21.0216 19.1684 20.6059 19.3914L17.6953 16.4808ZM23.241 22.0001C23.241 22.6844 22.6843 23.2411 22 23.2411C21.3157 23.2411 20.7591 22.6844 20.7591 22.0001C20.7591 21.3158 21.3157 20.7591 22 20.7591C22.6843 20.7591 23.241 21.3158 23.241 22.0001Z" fill="#E4E541"/>
<path d="M11.6153 11.6152C11.7759 11.4554 11.8677 11.2338 11.8677 11.008C11.8677 10.7821 11.7759 10.5614 11.6153 10.4008C11.4555 10.2411 11.2347 10.1492 11.0081 10.1492C10.7822 10.1492 10.5607 10.2411 10.4009 10.4008C10.2413 10.5605 10.1493 10.7821 10.1493 11.008C10.1493 11.2347 10.2412 11.4554 10.4009 11.6152C10.5607 11.7748 10.7822 11.8668 11.0081 11.8668C11.2347 11.8668 11.4555 11.7748 11.6153 11.6152Z" fill="#E4E541"/>
<path d="M27.949 2.56601C28.1758 2.56601 28.3974 2.47489 28.5571 2.31438C28.7168 2.15464 28.8088 1.93384 28.8088 1.7072C28.8088 1.48133 28.7169 1.25976 28.5571 1.10002C28.3974 0.940367 28.1758 0.848389 27.949 0.848389C27.7232 0.848389 27.5016 0.940281 27.3419 1.10002C27.1822 1.25976 27.0902 1.48133 27.0902 1.7072C27.0902 1.93393 27.1821 2.15464 27.3419 2.31438C27.5016 2.47489 27.7232 2.56601 27.949 2.56601Z" fill="#E4E541"/>
</g>
<defs>
<clipPath id="clip0_1_305">
<rect width="44" height="44" fill="white"/>
</clipPath>
</defs>
</svg>
