<svg width="180" height="39" viewBox="0 0 180 39" fill="none" xmlns="http://www.w3.org/2000/svg">
<g clip-path="url(#clip0_1_339)">
<path d="M120.75 0.463291V4.49472L124.438 0.450363H125.588L121.818 4.52919L125.778 8.84505H124.533L120.75 4.75328V8.84505H119.72V0.463291H120.75Z" fill="white"/>
<path d="M125.686 2.71262H126.741L128.639 7.11036L130.358 2.71262H131.367L127.939 10.978H126.944L128.116 8.21141L125.686 2.71262Z" fill="white"/>
<path d="M133.677 8.84508H132.692V2.71281H133.677V8.84508ZM132.516 0.790825C132.516 0.619387 132.585 0.454971 132.707 0.333745C132.83 0.21252 132.996 0.144417 133.169 0.144417C133.343 0.144417 133.509 0.21252 133.632 0.333745C133.754 0.454971 133.823 0.619387 133.823 0.790825C133.823 0.962264 133.754 1.12668 133.632 1.24791C133.509 1.36913 133.343 1.43723 133.169 1.43723C132.996 1.43723 132.83 1.36913 132.707 1.24791C132.585 1.12668 132.516 0.962264 132.516 0.790825Z" fill="white"/>
<path d="M136.059 2.71262L137.896 7.86019L139.711 2.71262H140.731L138.502 8.84489H137.245L134.991 2.71262H136.059Z" fill="white"/>
<path d="M119.221 21.0534H120.216C120.347 22.049 120.761 22.8936 122.459 22.8936C123.548 22.8936 124.39 22.2623 124.39 21.312C124.39 20.3618 123.954 19.9524 122.339 19.7046C120.561 19.4245 119.506 18.8966 119.506 17.3969C119.506 16.1192 120.63 15.1216 122.232 15.1216C123.941 15.1216 124.971 15.9296 125.15 17.4292H124.224C124.023 16.3648 123.418 15.9425 122.232 15.9425C121.047 15.9425 120.465 16.5049 120.465 17.3021C120.465 18.0993 120.774 18.5561 122.505 18.8104C124.39 19.0905 125.388 19.6723 125.388 21.2474C125.388 22.6544 124.141 23.721 122.459 23.721C120.195 23.721 119.375 22.4907 119.221 21.0599" fill="white"/>
<path d="M126.739 20.6074V20.5148C126.739 18.638 128.09 17.3732 129.75 17.3732C131.043 17.3732 132.252 17.9593 132.442 19.5279H131.47C131.315 18.554 130.598 18.192 129.75 18.192C128.624 18.192 127.759 19.0819 127.759 20.5255V20.6182C127.759 22.1265 128.589 22.9173 129.785 22.9173C130.657 22.9173 131.47 22.4131 131.563 21.409H132.476C132.346 22.7341 131.256 23.7188 129.774 23.7188C128.042 23.7188 126.739 22.523 126.739 20.6117" fill="white"/>
<path d="M135.022 14.5463V18.4506C135.305 17.8775 135.983 17.3733 137.014 17.3733C138.293 17.3733 139.193 18.0649 139.193 19.8469V23.6112H138.208V19.7758C138.208 18.6984 137.746 18.2158 136.75 18.2158C135.837 18.2158 135.02 18.7889 135.02 19.8943V23.609H134.035V14.5463H135.022Z" fill="white"/>
<path d="M145.824 20.5967V20.5148C145.824 19.0948 145.031 18.1812 143.797 18.1812C142.564 18.1812 141.769 19.0948 141.769 20.5018V20.5967C141.769 22.0037 142.529 22.9065 143.797 22.9065C145.066 22.9065 145.824 21.9778 145.824 20.5967ZM140.749 20.5967V20.5018C140.749 18.6596 142.041 17.3732 143.8 17.3732C145.558 17.3732 146.85 18.651 146.85 20.4911V20.5837C146.85 22.4368 145.543 23.7145 143.8 23.7145C142.056 23.7145 140.764 22.3894 140.764 20.5967" fill="white"/>
<path d="M153.131 20.5967V20.5148C153.131 19.0948 152.335 18.1812 151.102 18.1812C149.869 18.1812 149.075 19.0948 149.075 20.5018V20.5967C149.075 22.0037 149.836 22.9065 151.102 22.9065C152.368 22.9065 153.131 21.9778 153.131 20.5967ZM148.055 20.5967V20.5018C148.055 18.6596 149.348 17.3732 151.106 17.3732C152.865 17.3732 154.157 18.651 154.157 20.4911V20.5837C154.157 22.4368 152.85 23.7145 151.106 23.7145C149.363 23.7145 148.071 22.3894 148.071 20.5967" fill="white"/>
<path d="M156.783 14.5463H155.787V23.609H156.783V14.5463Z" fill="white"/>
<path d="M166.707 20.5967V20.5148C166.707 19.0948 165.914 18.1812 164.68 18.1812C163.447 18.1812 162.652 19.0948 162.652 20.5018V20.5967C162.652 22.0037 163.412 22.9065 164.68 22.9065C165.949 22.9065 166.707 21.9778 166.707 20.5967ZM161.634 20.5967V20.5018C161.634 18.6596 162.926 17.3732 164.685 17.3732C166.443 17.3732 167.736 18.651 167.736 20.4911V20.5837C167.736 22.4368 166.428 23.7145 164.685 23.7145C162.941 23.7145 161.649 22.3894 161.649 20.5967" fill="white"/>
<path d="M168.553 18.2975V17.4766H169.442V16.4811C169.442 15.2271 170.059 14.5117 171.292 14.5117C171.542 14.5045 171.791 14.5447 172.026 14.6302V15.449C171.805 15.3581 171.567 15.3141 171.327 15.3197C170.673 15.3197 170.425 15.7507 170.425 16.3755V17.4766H171.95V18.2975H170.425V23.6089H169.442V18.2975H168.553Z" fill="white"/>
<path d="M124.664 29.989V30.8229H120.75V33.6714H123.904V34.5031H120.75V37.5391H124.875V38.3729H119.72V29.989H124.664Z" fill="white"/>
<path d="M125.817 35.3715V35.2789C125.817 33.4 127.168 32.1373 128.829 32.1373C130.121 32.1373 131.33 32.7212 131.52 34.2812H130.548C130.393 33.3073 129.676 32.9432 128.829 32.9432C127.702 32.9432 126.837 33.8352 126.837 35.2789V35.3715C126.837 36.8798 127.667 37.6684 128.863 37.6684C129.735 37.6684 130.548 37.1642 130.644 36.1601H131.555C131.424 37.4831 130.334 38.47 128.853 38.47C127.12 38.47 125.817 37.2741 125.817 35.3629" fill="white"/>
<path d="M137.781 35.3585V35.2766C137.781 33.8588 136.985 32.9431 135.752 32.9431C134.518 32.9431 133.725 33.8588 133.725 35.2658V35.3585C133.725 36.7655 134.484 37.6683 135.752 37.6683C137.02 37.6683 137.781 36.7439 137.781 35.3585ZM132.705 35.3585V35.2658C132.705 33.4257 133.998 32.135 135.756 32.135C137.515 32.135 138.807 33.4128 138.807 35.2529V35.3477C138.807 37.2007 137.5 38.4763 135.756 38.4763C134.013 38.4763 132.712 37.1533 132.712 35.3585" fill="white"/>
<path d="M141.396 32.2407V33.2147C141.679 32.6415 142.355 32.1373 143.388 32.1373C144.667 32.1373 145.567 32.8268 145.567 34.6088V38.373H144.582V34.5376C144.582 33.4603 144.12 32.9798 143.124 32.9798C142.211 32.9798 141.394 33.5551 141.394 34.6562V38.373H140.409V32.2407H141.396Z" fill="white"/>
<path d="M152.196 35.3585V35.2766C152.196 33.8588 151.401 32.9431 150.169 32.9431C148.938 32.9431 148.14 33.8588 148.14 35.2658V35.3585C148.14 36.7655 148.899 37.6683 150.169 37.6683C151.44 37.6683 152.196 36.7439 152.196 35.3585ZM147.121 35.3585V35.2658C147.121 33.4257 148.413 32.135 150.171 32.135C151.93 32.135 153.222 33.4128 153.222 35.2529V35.3477C153.222 37.2007 151.915 38.4763 150.171 38.4763C148.428 38.4763 147.136 37.1533 147.136 35.3585" fill="white"/>
<path d="M155.811 32.2409V33.1825C155.989 32.8545 156.257 32.5826 156.584 32.3982C156.912 32.2137 157.285 32.1241 157.661 32.1396C158.468 32.1396 159.154 32.4563 159.474 33.2859C159.888 32.5016 160.852 32.1396 161.597 32.1396C162.699 32.1396 163.684 32.786 163.684 34.5766V38.3753H162.699V34.4968C162.699 33.4195 162.237 32.9735 161.392 32.9735C161.173 32.9661 160.955 33.0036 160.752 33.0838C160.548 33.1639 160.364 33.2848 160.21 33.4389C160.056 33.5929 159.936 33.7767 159.858 33.9788C159.78 34.181 159.745 34.3971 159.755 34.6132V38.3667H158.77V34.4882C158.77 33.4109 158.311 32.9648 157.463 32.9648C157.244 32.9575 157.026 32.995 156.823 33.0752C156.619 33.1553 156.435 33.2762 156.281 33.4303C156.127 33.5843 156.007 33.7681 155.929 33.9702C155.851 34.1723 155.816 34.3885 155.826 34.6046V38.3581H154.844V32.2409H155.811Z" fill="white"/>
<path d="M166.642 38.373H165.659V32.2408H166.642V38.373ZM165.482 30.3188C165.482 30.191 165.521 30.066 165.592 29.9596C165.664 29.8534 165.767 29.7704 165.886 29.7215C166.005 29.6726 166.137 29.6599 166.264 29.6849C166.39 29.7097 166.507 29.7713 166.598 29.8618C166.69 29.9521 166.752 30.0673 166.777 30.1927C166.803 30.3181 166.79 30.4481 166.74 30.5661C166.69 30.6842 166.607 30.7853 166.499 30.8562C166.392 30.9273 166.265 30.9652 166.136 30.9652C165.963 30.9652 165.796 30.8971 165.674 30.7758C165.551 30.6547 165.482 30.4903 165.482 30.3188Z" fill="white"/>
<path d="M168.232 35.3715V35.2789C168.232 33.4 169.584 32.1373 171.244 32.1373C172.536 32.1373 173.746 32.7212 173.935 34.2812H172.963C172.809 33.3073 172.092 32.9432 171.244 32.9432C170.117 32.9432 169.252 33.8352 169.252 35.2789V35.3715C169.252 36.8798 170.083 37.6684 171.279 37.6684C172.151 37.6684 172.963 37.1642 173.057 36.1601H173.97C173.842 37.4831 172.75 38.47 171.268 38.47C169.54 38.4786 168.232 37.2763 168.232 35.3715Z" fill="white"/>
<path d="M175.116 36.4855H176.077C176.16 37.2224 176.539 37.6685 177.535 37.6685C178.485 37.6685 178.886 37.3517 178.886 36.6967C178.886 36.0417 178.4 35.8348 177.442 35.6646C175.829 35.3845 175.282 34.9255 175.282 33.8568C175.282 32.7342 176.398 32.1331 177.381 32.1331C178.485 32.1331 179.468 32.564 179.623 33.9021H178.675C178.531 33.2341 178.165 32.9389 177.367 32.9389C176.657 32.9389 176.193 33.2923 176.193 33.8202C176.193 34.3481 176.502 34.6045 177.64 34.792C178.921 35.0505 179.819 35.2962 179.819 36.6105C179.819 37.7353 179.059 38.4743 177.542 38.4743C176.06 38.4743 175.169 37.746 175.11 36.4812" fill="white"/>
<path d="M105.219 0.476238H104.232V38.4226H105.219V0.476238Z" fill="white"/>
<path d="M30.9574 0.762835C28.3293 2.35515 23.0361 6.93172 17.2634 12.437C16.7295 12.006 17.5533 12.6697 17.0194 12.2431C20.0484 6.9899 22.5785 1.10759 22.7528 0.47626H30.8746C30.9596 0.767144 30.8746 0.47626 30.9574 0.762835ZM15.0211 14.7856C16.5029 17.3346 27.7409 31.9714 33.9363 38.4225H23.9121C20.1835 33.3267 10.7542 21.185 9.2201 19.8922L15.0211 14.7856ZM8.06295 0.47626C7.89952 4.54217 7.79056 11.4264 7.79056 19.2221C7.79056 25.2401 7.84504 34.7358 8.06295 38.4139H0C0.217918 36.145 0.383535 28.3924 0.383535 19.8233C0.383535 13.1566 0.274576 6.00089 0 0.471951L8.06295 0.47626Z" fill="white"/>
<path d="M57.7874 5.76597C56.4945 3.36294 54.4408 1.44508 51.9407 0.305967C52.0583 -0.176685 51.8971 0.482652 52.0169 0L59.0993 0.476188L58.0903 5.72072L57.7874 5.76597ZM44.9826 38.8858L36.5688 38.3127L37.7826 31.2582L38.092 31.2259C39.26 34.139 41.6789 37.1491 45.0654 38.582L44.9913 38.8858H44.9826ZM42.324 6.92735C42.324 11.0471 45.6145 12.9433 49.0685 14.5162C55.7564 17.4983 60.7445 20.5881 60.7445 27.634C60.7445 33.4861 56.9179 38.1381 50.1668 38.8643C49.9663 37.9356 50.2998 39.4827 50.0993 38.554C53.7625 37.4012 55.4818 34.9104 55.4818 31.59C55.4818 27.3086 52.4114 25.1949 47.3688 22.7557C41.1189 19.6077 36.2397 16.7937 36.2397 10.3964C36.2397 4.83729 40.2189 0.665801 47.3535 0.021547C47.5366 0.945912 47.2337 -0.599006 47.4145 0.325359C43.9278 1.38547 42.3261 3.83105 42.3261 6.92735" fill="white"/>
<path d="M89.66 31.2861V38.4225H78.9036C78.8143 37.9204 78.9363 38.6121 78.8491 38.11C82.7717 36.6664 87.2978 33.6175 89.3746 31.1805L89.66 31.2861ZM88.5073 0.47401V6.895L88.2196 6.99628C86.1211 4.37401 82.107 1.83578 78.5179 0.790751C78.6073 0.144341 78.4722 1.11611 78.5615 0.476165L88.5073 0.47401ZM86.6985 15.6625V21.7861L86.4414 21.9132C83.8155 20.0322 80.7755 19.2759 77.8424 18.6532C77.8424 18.2028 77.8424 18.7932 77.8424 18.3408C81.1111 17.7956 84.393 16.7118 86.4501 15.5267L86.692 15.6625H86.6985ZM75.1816 0.476165C75.016 6.05898 74.907 12.4003 74.907 20.2089C74.907 26.2247 75.016 35.7226 75.1816 38.4225H67.1186C67.3366 36.145 67.5022 28.3924 67.5022 19.8275C67.5022 13.1609 67.391 6.00512 67.1186 0.476165H75.1816Z" fill="white"/>
</g>
<defs>
<clipPath id="clip0_1_339">
<rect width="180" height="39" fill="white"/>
</clipPath>
</defs>
</svg>
