<svg width="44" height="44" viewBox="0 0 44 44" fill="none" xmlns="http://www.w3.org/2000/svg">
<g clip-path="url(#clip0_1_266)">
<path d="M43.2667 39.0704V21.9999C43.2646 21.8864 43.2357 21.7751 43.1823 21.675H43.1897L41.3945 18.0853C41.0248 17.337 40.2616 16.8642 39.4269 16.8665H34.4667V16.1332C34.4666 15.9387 34.3893 15.7522 34.2518 15.6147L30.2815 11.6445C30.0176 11.3833 29.6912 11.1942 29.3333 11.0952V6.14887L30.8 5.75507V7.5312V7.53633C30.7992 8.28939 31.1755 8.99281 31.8025 9.41C32.0204 9.55541 32.2994 9.57348 32.5344 9.45741C32.7693 9.34133 32.9244 9.10875 32.9414 8.84727C32.9583 8.58579 32.8344 8.33514 32.6165 8.18973C32.3977 8.04438 32.2663 7.79901 32.2667 7.53633V7.5312V5.29674C32.78 5.00025 33.0644 4.4239 32.9873 3.83614C32.9103 3.24837 32.487 2.76476 31.9147 2.61054L22.3769 0.0497379C22.13 -0.0162538 21.87 -0.0162538 21.6231 0.0497379L12.0853 2.61054C11.4439 2.78565 10.999 3.36832 10.999 4.0332C10.999 4.69809 11.4439 5.28076 12.0853 5.45587L14.6667 6.14887V10.9999H14.6205C13.9685 11.0002 13.3504 11.2904 12.9338 11.7919L9.70713 15.6639C9.59596 15.7951 9.53444 15.9612 9.53333 16.1332V16.8665H4.57307C3.73907 16.8636 2.97598 17.3352 2.60553 18.0824L0.810333 21.6721H0.817667C0.763805 21.773 0.734889 21.8854 0.733333 21.9999V39.0704C0.281049 39.3303 0.001573 39.8115 0 40.3332V41.7999C0 42.6099 0.656649 43.2665 1.46667 43.2665H11.2039C11.4638 43.7188 11.945 43.9983 12.4667 43.9998H31.5333C32.055 43.9983 32.5362 43.7188 32.7961 43.2665H42.5333C43.3434 43.2665 44 42.6099 44 41.7999V40.3332C43.9984 39.8115 43.719 39.3303 43.2667 39.0704ZM32.2667 38.8665H31.5333V22.7332H41.8V38.8665H32.2667ZM24.2 38.8665H19.8V30.7999H24.2V38.8665ZM24.9333 29.3332H19.0667C18.6617 29.3332 18.3333 29.6615 18.3333 30.0665V38.8665H13.9333V22.7332H30.0667V38.8665H25.6667V30.0665C25.6667 29.6615 25.3383 29.3332 24.9333 29.3332ZM33 16.8665V18.3332H11V16.8665H33ZM31.5333 19.7999V21.2665H12.4667V19.7999H31.5333ZM39.4269 18.3332C39.7049 18.3323 39.9592 18.4896 40.0825 18.7387L41.3468 21.2665H33V19.7999C33.81 19.7999 34.4667 19.1432 34.4667 18.3332H39.4269ZM22 1.46654L31.5436 4.0332H31.5341L22.0037 6.59987L12.4667 4.02734L22 1.46654ZM16.1333 6.54267L21.6231 8.01667C21.87 8.08314 22.13 8.08314 22.3769 8.01667L27.8667 6.54267V10.9999H16.1333V6.54267ZM14.0573 12.7305C14.1965 12.5633 14.4029 12.4666 14.6205 12.4665H28.7254C28.9201 12.4664 29.1069 12.5437 29.2446 12.6814L31.9631 15.3999H11.8323L14.0573 12.7305ZM3.91747 18.7387C4.0408 18.4896 4.29508 18.3323 4.57307 18.3332H9.53333C9.53333 19.1432 10.19 19.7999 11 19.7999V21.2665H2.6532L3.91747 18.7387ZM1.46667 40.3332H11V41.7999H1.46667V40.3332ZM11.7333 38.8665H2.2V22.7332H12.4667V38.8665H11.7333ZM12.4667 42.5332V40.3332H31.5333V42.5332H12.4667ZM42.5333 41.7999H33V40.3332H42.5333V41.7999Z" fill="#E4E541"/>
<path d="M19.8 24.2C19.395 24.2 19.0667 24.5283 19.0667 24.9333V26.4C19.0667 26.805 19.395 27.1333 19.8 27.1333C20.205 27.1333 20.5333 26.805 20.5333 26.4V24.9333C20.5333 24.5283 20.205 24.2 19.8 24.2Z" fill="#E4E541"/>
<path d="M9.53332 24.9333C9.12831 24.9333 8.79999 25.2617 8.79999 25.6667V27.1334C8.79999 27.5384 9.12831 27.8667 9.53332 27.8667C9.93833 27.8667 10.2667 27.5384 10.2667 27.1334V25.6667C10.2667 25.2617 9.93833 24.9333 9.53332 24.9333Z" fill="#E4E541"/>
<path d="M5.13336 24.9333C4.72835 24.9333 4.40002 25.2617 4.40002 25.6667V27.1334C4.40002 27.5384 4.72835 27.8667 5.13336 27.8667C5.53837 27.8667 5.86669 27.5384 5.86669 27.1334V25.6667C5.86669 25.2617 5.53837 24.9333 5.13336 24.9333Z" fill="#E4E541"/>
<path d="M9.53332 29.333C9.12831 29.333 8.79999 29.6613 8.79999 30.0663V31.533C8.79999 31.938 9.12831 32.2663 9.53332 32.2663C9.93833 32.2663 10.2667 31.938 10.2667 31.533V30.0663C10.2667 29.6613 9.93833 29.333 9.53332 29.333Z" fill="#E4E541"/>
<path d="M5.13336 29.333C4.72835 29.333 4.40002 29.6613 4.40002 30.0663V31.533C4.40002 31.938 4.72835 32.2663 5.13336 32.2663C5.53837 32.2663 5.86669 31.938 5.86669 31.533V30.0663C5.86669 29.6613 5.53837 29.333 5.13336 29.333Z" fill="#E4E541"/>
<path d="M9.53332 33.7332C9.12831 33.7332 8.79999 34.0615 8.79999 34.4665V35.9332C8.79999 36.3382 9.12831 36.6665 9.53332 36.6665C9.93833 36.6665 10.2667 36.3382 10.2667 35.9332V34.4665C10.2667 34.0615 9.93833 33.7332 9.53332 33.7332Z" fill="#E4E541"/>
<path d="M5.13336 33.7332C4.72835 33.7332 4.40002 34.0615 4.40002 34.4665V35.9332C4.40002 36.3382 4.72835 36.6665 5.13336 36.6665C5.53837 36.6665 5.86669 36.3382 5.86669 35.9332V34.4665C5.86669 34.0615 5.53837 33.7332 5.13336 33.7332Z" fill="#E4E541"/>
<path d="M38.8666 24.9333C38.4616 24.9333 38.1333 25.2617 38.1333 25.6667V27.1334C38.1333 27.5384 38.4616 27.8667 38.8666 27.8667C39.2716 27.8667 39.6 27.5384 39.6 27.1334V25.6667C39.6 25.2617 39.2716 24.9333 38.8666 24.9333Z" fill="#E4E541"/>
<path d="M34.4667 24.9333C34.0617 24.9333 33.7333 25.2617 33.7333 25.6667V27.1334C33.7333 27.5384 34.0617 27.8667 34.4667 27.8667C34.8717 27.8667 35.2 27.5384 35.2 27.1334V25.6667C35.2 25.2617 34.8717 24.9333 34.4667 24.9333Z" fill="#E4E541"/>
<path d="M38.8666 29.333C38.4616 29.333 38.1333 29.6613 38.1333 30.0663V31.533C38.1333 31.938 38.4616 32.2663 38.8666 32.2663C39.2716 32.2663 39.6 31.938 39.6 31.533V30.0663C39.6 29.6613 39.2716 29.333 38.8666 29.333Z" fill="#E4E541"/>
<path d="M34.4667 29.333C34.0617 29.333 33.7333 29.6613 33.7333 30.0663V31.533C33.7333 31.938 34.0617 32.2663 34.4667 32.2663C34.8717 32.2663 35.2 31.938 35.2 31.533V30.0663C35.2 29.6613 34.8717 29.333 34.4667 29.333Z" fill="#E4E541"/>
<path d="M38.8666 33.7332C38.4616 33.7332 38.1333 34.0615 38.1333 34.4665V35.9332C38.1333 36.3382 38.4616 36.6665 38.8666 36.6665C39.2716 36.6665 39.6 36.3382 39.6 35.9332V34.4665C39.6 34.0615 39.2716 33.7332 38.8666 33.7332Z" fill="#E4E541"/>
<path d="M34.4667 33.7332C34.0617 33.7332 33.7333 34.0615 33.7333 34.4665V35.9332C33.7333 36.3382 34.0617 36.6665 34.4667 36.6665C34.8717 36.6665 35.2 36.3382 35.2 35.9332V34.4665C35.2 34.0615 34.8717 33.7332 34.4667 33.7332Z" fill="#E4E541"/>
<path d="M24.2 24.2C23.795 24.2 23.4667 24.5283 23.4667 24.9333V26.4C23.4667 26.805 23.795 27.1333 24.2 27.1333C24.605 27.1333 24.9333 26.805 24.9333 26.4V24.9333C24.9333 24.5283 24.605 24.2 24.2 24.2Z" fill="#E4E541"/>
</g>
<defs>
<clipPath id="clip0_1_266">
<rect width="44" height="44" fill="white"/>
</clipPath>
</defs>
</svg>
