<svg width="44" height="44" viewBox="0 0 44 44" fill="none" xmlns="http://www.w3.org/2000/svg">
<path d="M38.268 18.2188H30.0781V5.56016C30.0781 3.91875 28.7375 2.57812 27.0961 2.57812H6.41953C4.77812 2.57812 3.4375 3.91875 3.4375 5.56016V19.3703C3.4375 21.0117 4.77812 22.3523 6.41953 22.3523H14.6094V35.0109C14.6094 36.6523 15.95 37.993 17.5914 37.993H19.9375L26.168 42.1437C26.7352 42.5219 27.5 42.118 27.5 41.4305V37.993H38.268C39.9094 37.993 41.25 36.6523 41.25 35.0109V21.2008C41.25 19.5594 39.9094 18.2188 38.268 18.2188ZM5.15625 19.3617V5.56016C5.15625 4.86406 5.72344 4.29688 6.41953 4.29688H27.1047C27.8008 4.29688 28.368 4.86406 28.368 5.56016V19.3703C28.368 20.0664 27.8008 20.6336 27.1047 20.6336H24.4922C24.3203 20.6336 24.157 20.6852 24.0195 20.7797L18.9062 24.1742V21.4844C18.9062 21.0117 18.5195 20.625 18.0469 20.625H15.4688H6.41953C5.72344 20.625 5.15625 20.0578 5.15625 19.3617ZM39.5312 35.0023C39.5312 35.6984 38.9641 36.2656 38.268 36.2656H26.6406C26.168 36.2656 25.7812 36.6523 25.7812 37.125V39.8148L20.668 36.4117C20.5305 36.3172 20.3586 36.2656 20.1953 36.2656H17.5914C16.8953 36.2656 16.3281 35.6984 16.3281 35.0023V22.3438H17.1875V25.7812C17.1875 26.1336 17.4109 26.4773 17.7805 26.5977C17.8492 26.6234 17.8578 26.6148 17.8922 26.6234C17.9523 26.632 17.9609 26.632 18.0039 26.632H18.0469H18.0641C18.0984 26.632 18.1672 26.6234 18.1844 26.6234C18.2102 26.6148 18.2875 26.5977 18.3047 26.5977C18.5195 26.5289 18.15 26.7266 24.75 22.3438C27.2508 22.3438 27.2852 22.3609 27.6633 22.2922C27.8609 22.2578 28.0672 22.1891 28.2477 22.1117C29.1242 21.7422 29.8117 20.9516 30.018 19.9375H38.268C38.9641 19.9375 39.5312 20.5047 39.5312 21.2008V35.0023Z" fill="#E4E541"/>
<path d="M34.375 16.3281C35.793 16.3281 36.9531 15.168 36.9531 13.75C36.9531 12.332 35.793 11.1719 34.375 11.1719C32.957 11.1719 31.7969 12.332 31.7969 13.75C31.7969 15.168 32.957 16.3281 34.375 16.3281ZM34.375 12.8906C34.8477 12.8906 35.2344 13.2773 35.2344 13.75C35.2344 14.2227 34.8477 14.6094 34.375 14.6094C33.9023 14.6094 33.5156 14.2227 33.5156 13.75C33.5156 13.2773 33.9023 12.8906 34.375 12.8906Z" fill="#E4E541"/>
<path d="M38.6719 9.45312C40.5711 9.45312 42.1094 7.91484 42.1094 6.01562C42.1094 4.11641 40.5711 2.57812 38.6719 2.57812C36.7727 2.57812 35.2344 4.11641 35.2344 6.01562C35.2344 7.91484 36.7727 9.45312 38.6719 9.45312ZM38.6719 4.29688C39.6172 4.29688 40.3906 5.07031 40.3906 6.01562C40.3906 6.96094 39.6172 7.73438 38.6719 7.73438C37.7266 7.73438 36.9531 6.96094 36.9531 6.01562C36.9531 5.07031 37.7266 4.29688 38.6719 4.29688Z" fill="#E4E541"/>
</svg>
