<svg width="44" height="44" viewBox="0 0 44 44" fill="none" xmlns="http://www.w3.org/2000/svg">
<g clip-path="url(#clip0_1_286)">
<path d="M15.7099 44.0383C15.2039 44.0383 14.7932 43.6277 14.7932 43.1217V41.5285C14.7932 40.962 14.6209 40.4175 14.2964 39.95L10.6591 34.7562C9.16672 32.624 8.76705 29.8795 9.59022 27.4137L11.4162 21.9357C11.9442 20.3517 13.4219 19.2883 15.0902 19.2883H23.8169C24.8454 19.2883 25.7272 19.8787 26.1214 20.8283C26.5155 21.7798 26.3084 22.8212 25.5805 23.5472C23.8829 25.243 21.7085 26.288 19.3582 26.5538C21.8735 28.6622 23.7857 31.4562 24.827 34.582C24.9865 35.0623 24.728 35.5812 24.2477 35.7425C23.7637 35.9038 23.2485 35.6398 23.089 35.1632C21.9707 31.8082 19.734 28.8803 16.7915 26.9205L16.115 26.4695C15.7795 26.2458 15.6292 25.826 15.7465 25.4392C15.8639 25.0542 16.2195 24.7902 16.6247 24.7902H18.1555C20.471 24.7902 22.6454 23.89 24.2825 22.2528C24.5649 21.9705 24.4769 21.6552 24.4255 21.5305C24.3742 21.4058 24.2129 21.1217 23.815 21.1217H15.0884C14.2102 21.1217 13.4311 21.6827 13.1524 22.5168L11.3282 27.9948C10.6902 29.9107 11.0001 32.0447 12.1606 33.702L15.7979 38.8977C16.3405 39.675 16.6265 40.5843 16.6265 41.5285V43.1217C16.6265 43.6277 16.2159 44.0383 15.7099 44.0383Z" fill="#E4E541"/>
<path d="M31.5516 25.5384C31.4452 25.5384 31.3389 25.5201 31.2344 25.4816C30.7596 25.3056 30.5157 24.7794 30.6936 24.3028L36.7802 7.84128C36.8554 7.64328 36.8884 7.45995 36.8884 7.26195C36.8884 6.52678 36.3971 5.84845 35.6674 5.57161C34.7232 5.23428 33.6801 5.67611 33.3464 6.55978L27.6649 21.9524C27.4889 22.4291 26.9609 22.6729 26.4861 22.4951C26.0112 22.3191 25.7692 21.7929 25.9434 21.3181L31.6267 5.91995C32.3161 4.09761 34.4152 3.17728 36.2981 3.85195C37.7519 4.39828 38.7199 5.76778 38.7199 7.26195C38.7199 7.68178 38.6466 8.07961 38.4962 8.48295L32.4114 24.9426C32.2739 25.3093 31.9237 25.5384 31.5516 25.5384Z" fill="#E4E541"/>
<path d="M31.4491 33.9554C30.8129 33.9554 30.1877 33.7886 29.6212 33.4604V33.4622C27.8704 32.4502 27.2672 30.2044 28.2792 28.4536L30.8679 23.9729C31.3574 23.1241 32.1494 22.5172 33.0954 22.2624C34.0432 22.0076 35.0296 22.1396 35.8784 22.6309C37.6292 23.6411 38.2306 25.8869 37.2204 27.6377L34.6317 32.1184C34.1422 32.9672 33.3521 33.5741 32.4061 33.8271C32.0871 33.9132 31.7681 33.9554 31.4491 33.9554ZM34.0432 23.9711C33.8856 23.9711 33.7261 23.9931 33.5684 24.0334C33.0954 24.1599 32.6994 24.4642 32.4556 24.8896L29.8669 29.3702C29.3627 30.2466 29.6634 31.3686 30.5379 31.8746C30.9614 32.1202 31.4582 32.1844 31.9294 32.0579C32.4024 31.9314 32.7984 31.6289 33.0422 31.2036L35.6309 26.7229C36.1351 25.8466 35.8344 24.7246 34.9599 24.2186C34.6757 24.0554 34.3622 23.9711 34.0432 23.9711Z" fill="#E4E541"/>
<path d="M21.4831 21.1217C21.0358 21.1217 20.6452 20.7954 20.5774 20.3407L18.1758 4.32658C18.0419 3.43374 17.2903 2.78841 16.3883 2.78841C15.8621 2.78841 15.3653 3.01574 15.0206 3.41541C14.6796 3.81141 14.5256 4.33758 14.6026 4.85825L16.8521 20.0309C16.9273 20.5314 16.5808 20.9971 16.0803 21.0704C15.5834 21.1511 15.1141 20.8009 15.0389 20.2986L12.7894 5.12775C12.6354 4.07908 12.9434 3.01758 13.6346 2.21641C14.3258 1.41524 15.3304 0.955078 16.3883 0.955078C18.2033 0.955078 19.7176 2.25858 19.9871 4.05341L22.3887 20.0676C22.4639 20.5681 22.1192 21.0337 21.6187 21.1089C21.5729 21.1181 21.5271 21.1217 21.4831 21.1217Z" fill="#E4E541"/>
<path d="M26.7942 22.5556C26.7557 22.5556 26.719 22.5538 26.6805 22.5483C26.1782 22.4878 25.8207 22.0294 25.883 21.5253L28.0647 3.85378C28.1233 3.32211 27.94 2.78311 27.5605 2.39078C27.181 1.99661 26.6603 1.79861 26.1067 1.83711C25.2267 1.90495 24.519 2.58878 24.4255 3.46695L22.396 20.3116C22.3355 20.8139 21.8643 21.1898 21.3767 21.1128C20.8743 21.0541 20.515 20.5958 20.5755 20.0934L22.6032 3.25795C22.792 1.51445 24.2073 0.143113 25.9655 0.00927918C27.0655 -0.0658875 28.1178 0.330113 28.8787 1.11661C29.6395 1.90311 30.008 2.97928 29.887 4.06645L27.7035 21.7508C27.6448 22.2146 27.2507 22.5556 26.7942 22.5556Z" fill="#E4E541"/>
<path d="M31.7533 44.0366C31.2473 44.0366 30.8367 43.6259 30.8367 43.1199V41.6899C30.8367 40.6156 31.2125 39.5743 31.8927 38.7566L32.5032 38.0343C34.3237 35.8599 35.1395 32.9889 34.7325 30.1564L34.5675 28.9629C34.4978 28.4624 34.848 28.0004 35.3503 27.9308C35.849 27.8629 36.3128 28.2131 36.3825 28.7136L36.5475 29.9034C37.026 33.2456 36.0617 36.6428 33.9038 39.2168L33.2952 39.9354C32.8937 40.4194 32.67 41.0428 32.67 41.6899V43.1181C32.67 43.6259 32.2593 44.0366 31.7533 44.0366Z" fill="#E4E541"/>
</g>
<defs>
<clipPath id="clip0_1_286">
<rect width="44" height="44" fill="white"/>
</clipPath>
</defs>
</svg>
